# Blender 4.0.2
# www.blender.org
mtllib SeedSingle.mtl
o SeedSingle
v -0.200000 0.000000 5.800000
v -0.300000 0.000000 5.900000
v -0.300000 0.100000 5.900000
v -0.600000 0.100000 5.900000
v -0.600000 0.000000 5.800000
v -0.600000 0.100000 5.800000
v -0.700000 0.000000 5.800000
v -0.200000 0.000000 5.400000
v -0.300000 0.000000 5.200000
v -0.400000 0.000000 5.100000
v -0.500000 0.100000 5.100000
v -0.400000 0.100000 5.100000
v -0.700000 0.100000 5.400000
v -0.200000 0.100000 5.400000
v -0.300000 0.100000 5.200000
v -0.600000 0.100000 5.400000
v -0.600000 0.100000 5.200000
v -0.600000 0.000000 5.200000
v -0.700000 0.100000 5.800000
v -0.300000 0.000000 5.800000
v -0.300000 0.000000 5.400000
v -0.400000 0.000000 5.200000
v -0.500000 0.000000 5.200000
v -0.500000 0.000000 5.100000
v -0.600000 0.000000 5.900000
v -0.600000 0.000000 5.400000
v -0.700000 0.000000 5.400000
v -0.200000 0.100000 5.800000
v -0.300000 0.100000 5.400000
v -0.300000 0.100000 5.800000
v -0.500000 0.100000 5.200000
v -0.400000 0.100000 5.200000
vn -0.0000 -0.0000 1.0000
vn -0.0000 -0.0000 -1.0000
vn 1.0000 -0.0000 -0.0000
vn -1.0000 -0.0000 -0.0000
vn -0.0000 -1.0000 -0.0000
vn -0.0000 1.0000 -0.0000
vt 0.478351 0.723349
vt 0.567690 0.812688
vt 0.478351 0.812688
vt 0.763635 0.723349
vt 0.852974 0.812688
vt 0.763635 0.812688
vt 0.472596 0.812688
vt 0.383256 0.723349
vt 0.472596 0.723349
vt 0.573446 0.812688
vt 0.662785 0.723349
vt 0.662785 0.812688
vt 0.668540 0.812688
vt 0.757880 0.723349
vt 0.757880 0.812688
vt 0.377501 0.812688
vt 0.288162 0.723349
vt 0.377501 0.723349
vt 0.288162 0.907783
vt 0.377501 0.818444
vt 0.377501 0.907783
vt 0.383256 0.907783
vt 0.472596 0.818444
vt 0.472596 0.907783
vt 0.478351 0.907783
vt 0.567691 0.818444
vt 0.567691 0.907783
vt 0.573445 0.818444
vt 0.662785 0.907783
vt 0.573445 0.907783
vt 0.668540 0.818444
vt 0.757880 0.907783
vt 0.668540 0.907783
vt 0.187312 0.723349
vt 0.097972 0.902028
vt 0.097972 0.723349
vt 0.907783 0.002877
vt 0.997122 0.360235
vt 0.907783 0.360235
vt 0.002878 0.723349
vt 0.092217 0.991367
vt 0.002878 0.991367
vt 0.270896 0.628254
vt 0.181557 0.628254
vt 0.092217 0.449575
vt 0.907783 0.723349
vt 0.997122 0.365991
vt 0.997122 0.723349
vt 0.282406 0.902028
vt 0.193067 0.723349
vt 0.282406 0.723349
vt 0.723349 0.628254
vt 0.723349 0.717594
vt 0.634009 0.628254
vt 0.567690 0.723349
vt 0.852974 0.723349
vt 0.383256 0.812688
vt 0.573446 0.723349
vt 0.668540 0.723349
vt 0.288162 0.812688
vt 0.288162 0.818444
vt 0.383256 0.818444
vt 0.478351 0.818444
vt 0.662785 0.818444
vt 0.757880 0.818444
vt 0.187312 0.902028
vt 0.997122 0.002877
vt 0.092217 0.723349
vt 0.360236 0.092217
vt 0.449575 0.092217
vt 0.449575 0.449575
vt 0.360236 0.449575
vt 0.360236 0.628254
vt 0.092217 0.002878
vt 0.360236 0.002878
vt 0.002878 0.449575
vt 0.002878 0.092217
vt 0.092217 0.092217
vt 0.270896 0.717594
vt 0.181557 0.717594
vt 0.092217 0.628254
vt 0.907783 0.365991
vt 0.193067 0.902028
vt 0.544670 0.092217
vt 0.544670 0.002878
vt 0.812688 0.002878
vt 0.812688 0.092217
vt 0.902028 0.092217
vt 0.902028 0.449575
vt 0.455330 0.449575
vt 0.455330 0.092217
vt 0.544670 0.628254
vt 0.544670 0.449575
vt 0.812688 0.449575
vt 0.812688 0.628254
vt 0.634009 0.717594
s 0
f 28/1/1 20/2/1 1/3/1
f 6/4/1 7/5/1 5/6/1
f 21/7/2 14/8/2 8/9/2
f 22/10/2 15/11/2 9/12/2
f 24/13/2 12/14/2 10/15/2
f 18/16/2 31/17/2 23/18/2
f 27/19/2 16/20/2 26/21/2
f 20/22/3 3/23/3 2/24/3
f 10/25/3 32/26/3 22/27/3
f 31/28/4 24/29/4 23/30/4
f 4/31/4 5/32/4 25/33/4
f 18/34/4 16/35/4 17/36/4
f 13/37/4 7/38/4 19/39/4
f 4/40/1 2/41/1 3/42/1
f 23/43/5 22/44/5 21/45/5
f 14/46/3 1/47/3 8/48/3
f 9/49/3 29/50/3 21/51/3
f 32/52/6 12/53/6 31/54/6
f 28/1/1 30/55/1 20/2/1
f 6/4/1 19/56/1 7/5/1
f 21/7/2 29/57/2 14/8/2
f 22/10/2 32/58/2 15/11/2
f 24/13/2 11/59/2 12/14/2
f 18/16/2 17/60/2 31/17/2
f 27/19/2 13/61/2 16/20/2
f 20/22/3 30/62/3 3/23/3
f 10/25/3 12/63/3 32/26/3
f 31/28/4 11/64/4 24/29/4
f 4/31/4 6/65/4 5/32/4
f 18/34/4 26/66/4 16/35/4
f 13/37/4 27/67/4 7/38/4
f 4/40/1 25/68/1 2/41/1
f 5/69/5 7/70/5 27/71/5
f 26/72/5 18/73/5 23/43/5
f 5/69/5 27/71/5 26/72/5
f 2/74/5 25/75/5 5/69/5
f 8/76/5 1/77/5 20/78/5
f 20/78/5 2/74/5 5/69/5
f 5/69/5 26/72/5 20/78/5
f 26/72/5 23/43/5 21/45/5
f 20/78/5 26/72/5 21/45/5
f 23/43/5 24/79/5 10/80/5
f 22/44/5 9/81/5 21/45/5
f 23/43/5 10/80/5 22/44/5
f 21/45/5 8/76/5 20/78/5
f 14/46/3 28/82/3 1/47/3
f 9/49/3 15/83/3 29/50/3
f 6/84/6 4/85/6 3/86/6
f 30/87/6 28/88/6 14/89/6
f 6/84/6 3/86/6 30/87/6
f 13/90/6 19/91/6 6/84/6
f 31/54/6 17/92/6 16/93/6
f 16/93/6 13/90/6 6/84/6
f 6/84/6 30/87/6 29/94/6
f 30/87/6 14/89/6 29/94/6
f 29/94/6 15/95/6 32/52/6
f 31/54/6 16/93/6 32/52/6
f 16/93/6 6/84/6 29/94/6
f 32/52/6 16/93/6 29/94/6
f 12/53/6 11/96/6 31/54/6
