# Blender 4.5.4 LTS
# www.blender.org
mtllib DirtPile.mtl
o Plane
v -0.718686 -0.184540 0.881629
v 1.025731 -0.285955 1.159000
v -0.960845 -0.040001 -0.820230
v 0.965394 -0.069515 -0.802372
v -0.979483 -0.020960 -0.505802
v -0.990747 -0.016489 -0.202244
v -0.945486 -0.070012 0.183386
v -0.831388 -0.089270 0.539710
v -0.436187 -0.101328 0.956688
v -0.136258 -0.115333 1.058019
v 0.239069 -0.163490 1.138886
v 0.636653 -0.163316 1.214124
v 1.046934 -0.052241 0.719931
v 1.012760 -0.035560 0.249749
v 1.002098 -0.037956 -0.210369
v 0.980613 -0.068018 -0.507929
v 0.576607 -0.003163 -0.895576
v 0.199899 -0.000140 -0.999386
v -0.199882 0.002327 -0.999460
v -0.579483 -0.020960 -0.905802
v -0.507039 0.043726 0.571190
v -0.568412 0.215707 0.190826
v -0.547795 0.349869 -0.204341
v -0.592643 0.184486 -0.566225
v -0.221957 0.006785 0.627685
v -0.168238 0.299738 0.223768
v 0.013544 0.500108 -0.217521
v -0.145130 0.345851 -0.604422
v 0.225634 0.044256 0.730642
v 0.214903 0.145312 0.268146
v 0.246780 0.334389 -0.193888
v 0.197262 0.202176 -0.601252
v 0.822404 0.193301 0.607480
v 0.661640 0.131120 0.262706
v 0.596861 0.166299 -0.197464
v 0.575001 0.096029 -0.561838
vn 0.3018 0.9403 -0.1573
vn -0.3214 0.8908 -0.3214
vn -0.2645 0.7796 -0.5676
vn 0.1616 0.8080 -0.5666
vn 0.2017 0.9060 -0.3721
vn -0.3688 0.8509 0.3742
vn -0.4977 0.8033 0.3271
vn -0.6102 0.7657 0.2033
vn -0.5675 0.8042 -0.1766
vn -0.0013 0.9503 0.3114
vn -0.1248 0.8530 0.5069
vn -0.2309 0.9214 0.3126
vn -0.2951 0.9051 -0.3061
vn -0.0712 0.9253 0.3724
vn 0.0541 0.9079 0.4156
vn 0.3751 0.8157 0.4404
vn 0.4475 0.7974 -0.4049
vn -0.1089 0.8765 0.4689
vn -0.1190 0.9902 0.0730
vn 0.2198 0.9497 0.2231
vn 0.3512 0.8972 -0.2679
vn 0.4075 0.7584 0.5088
vn 0.5931 0.7834 -0.1856
vn 0.4402 0.8979 -0.0041
vn 0.4149 0.8952 -0.1629
vt 0.800000 0.800000
vt 1.000000 0.800000
vt 1.000000 1.000000
vt 0.800000 1.000000
vt 0.000000 0.800000
vt 0.200000 0.800000
vt 0.200000 1.000000
vt 0.000000 1.000000
vt 0.400000 0.800000
vt 0.400000 1.000000
vt 0.600000 0.800000
vt 0.600000 1.000000
vt 0.000000 0.000000
vt 0.200000 0.000000
vt 0.200000 0.200000
vt 0.000000 0.200000
vt 0.200000 0.400000
vt 0.000000 0.400000
vt 0.200000 0.600000
vt 0.000000 0.600000
vt 0.400000 0.000000
vt 0.400000 0.200000
vt 0.400000 0.400000
vt 0.400000 0.600000
vt 0.600000 0.000000
vt 0.600000 0.200000
vt 0.600000 0.400000
vt 0.600000 0.600000
vt 0.800000 0.000000
vt 0.800000 0.200000
vt 0.800000 0.400000
vt 0.800000 0.600000
vt 1.000000 0.000000
vt 1.000000 0.200000
vt 1.000000 0.400000
vt 1.000000 0.600000
s 0
usemtl Material.001
f 36/1/1 16/2/1 4/3/1 17/4/1
f 5/5/2 24/6/2 20/7/2 3/8/2
f 24/6/3 28/9/3 19/10/3 20/7/3
f 28/9/4 32/11/4 18/12/4 19/10/4
f 32/11/5 36/1/5 17/4/5 18/12/5
f 1/13/6 9/14/6 21/15/6 8/16/6
f 8/16/7 21/15/7 22/17/7 7/18/7
f 7/18/8 22/17/8 23/19/8 6/20/8
f 6/20/9 23/19/9 24/6/9 5/5/9
f 9/14/10 10/21/10 25/22/10 21/15/10
f 21/15/11 25/22/11 26/23/11 22/17/11
f 22/17/12 26/23/12 27/24/12 23/19/12
f 23/19/13 27/24/13 28/9/13 24/6/13
f 10/21/14 11/25/14 29/26/14 25/22/14
f 25/22/15 29/26/15 30/27/15 26/23/15
f 26/23/16 30/27/16 31/28/16 27/24/16
f 27/24/17 31/28/17 32/11/17 28/9/17
f 11/25/18 12/29/18 33/30/18 29/26/18
f 29/26/19 33/30/19 34/31/19 30/27/19
f 30/27/20 34/31/20 35/32/20 31/28/20
f 31/28/21 35/32/21 36/1/21 32/11/21
f 12/29/22 2/33/22 13/34/22 33/30/22
f 33/30/23 13/34/23 14/35/23 34/31/23
f 34/31/24 14/35/24 15/36/24 35/32/24
f 35/32/25 15/36/25 16/2/25 36/1/25
