# Blender 4.5.4 LTS
# www.blender.org
mtllib RedFlower.mtl
o Circle
v 1.706559 0.594181 -2.741846
v -0.027140 1.809591 -3.286873
v -1.776101 2.138536 -2.298848
v -2.527320 1.359526 -0.285777
v -1.854756 -0.044209 1.515433
v -0.132816 -1.272629 2.094657
v 1.635845 -1.623968 1.151927
v 2.394335 -0.826847 -0.905661
v 1.839988 0.866077 -2.581635
v 0.106644 2.081785 -3.127472
v -1.641077 2.410367 -2.139027
v -2.391082 1.631095 -0.125760
v -1.717833 0.226581 1.677025
v 0.003635 -1.002420 2.257759
v 1.771317 -1.353693 1.315209
v 2.528687 -0.556000 -0.743326
v 1.679401 1.144785 -2.045615
v 0.250163 2.160389 -2.518076
v -1.198347 2.441474 -1.718451
v -1.813218 1.786263 -0.030466
v -1.241753 0.606479 1.494828
v 0.185704 -0.411790 1.974079
v 1.635224 -0.694022 1.176774
v 2.248907 -0.032772 -0.524826
v 1.635845 -1.623968 1.151927
v 2.394335 -0.826847 -0.905661
v 2.528687 -0.556000 -0.743326
v 1.771317 -1.353693 1.315209
v -1.854756 -0.044209 1.515433
v -0.132816 -1.272629 2.094657
v 0.003635 -1.002420 2.257759
v -1.717833 0.226581 1.677025
v -1.776101 2.138536 -2.298848
v -2.527320 1.359526 -0.285777
v -2.391082 1.631095 -0.125760
v -1.641077 2.410367 -2.139027
v 1.706559 0.594181 -2.741846
v -0.027140 1.809591 -3.286873
v 0.106644 2.081785 -3.127472
v 1.839988 0.866077 -2.581635
v 2.394335 -0.826847 -0.905661
v 1.706559 0.594181 -2.741846
v 1.839988 0.866077 -2.581635
v 2.528687 -0.556000 -0.743326
v -0.132816 -1.272629 2.094657
v 1.635845 -1.623968 1.151927
v 1.771317 -1.353693 1.315209
v 0.003635 -1.002420 2.257759
v -2.527320 1.359526 -0.285777
v -1.854756 -0.044209 1.515433
v -1.717833 0.226581 1.677025
v -2.391082 1.631095 -0.125760
v -0.027140 1.809591 -3.286873
v -1.776101 2.138536 -2.298848
v -1.641077 2.410367 -2.139027
v 0.106644 2.081785 -3.127472
v 4.919100 -2.060491 -0.797554
v 3.315644 -3.389822 2.741459
v 3.451696 -3.121392 2.908826
v 5.054165 -1.790939 -0.632457
v -0.515008 -2.627774 4.626526
v -3.601619 -0.375689 3.507312
v -3.463903 -0.105871 3.670890
v -0.378331 -2.358822 4.792469
v -4.817816 2.306072 0.193019
v -3.343303 3.525875 -3.047911
v -3.207633 3.795972 -2.884284
v -4.680261 2.576074 0.356225
v 0.257437 3.025182 -5.461596
v 3.473979 0.881503 -4.638196
v 3.607162 1.153195 -4.477427
v 0.390620 3.296875 -5.300827
v 3.627743 0.719224 -4.500893
v 4.931284 -1.921765 -1.041616
v 5.066286 -1.652140 -0.876665
v 3.760985 0.990849 -4.339988
v 3.133426 -3.410972 2.923506
v -0.283851 -2.730730 4.604409
v -0.147210 -2.461809 4.770437
v 3.269479 -3.142542 3.090873
v -3.752879 -0.214421 3.371505
v -4.837140 2.177298 0.416402
v -4.699481 2.447251 0.579687
v -3.615127 0.055427 3.535002
v -3.175265 3.552686 -3.238281
v 0.022547 3.121924 -5.423784
v 0.155790 3.393548 -5.262879
v -3.039686 3.822814 -3.074695
v 4.971822 -2.142883 -0.683251
v 3.434662 -3.409646 2.692005
v 3.564762 -3.152962 2.852048
v 5.101029 -1.885184 -0.525260
v -0.623678 -2.605325 4.694335
v -3.570722 -0.448033 3.613849
v -3.439058 -0.190043 3.770329
v -0.492980 -2.348141 4.853014
v -4.858118 2.390898 0.105460
v -3.448824 3.549244 -2.974656
v -3.319040 3.807467 -2.818078
v -4.726603 2.649056 0.261597
v 0.372530 3.014320 -5.521870
v 3.448320 0.964445 -4.734501
v 3.575691 1.224230 -4.580731
v 0.499901 3.274105 -5.368100
v 3.741434 0.655100 -4.472803
v 4.995489 -1.878910 -1.147530
v 5.124580 -1.621081 -0.989803
v 3.868890 0.914789 -4.318836
v 3.087277 -3.449968 3.039065
v -0.182735 -2.801387 4.651584
v -0.052104 -2.544259 4.810415
v 3.217377 -3.193284 3.199108
v -3.859103 -0.140599 3.354977
v -4.895528 2.146019 0.530081
v -4.763836 2.404076 0.686395
v -3.727388 0.117433 3.511342
v -3.127835 3.600144 -3.337303
v -0.075298 3.198779 -5.449845
v 0.052159 3.458468 -5.295878
v -2.998217 3.858423 -3.180800
vn -0.4076 -0.7893 -0.4593
vn 0.8863 0.4624 0.0259
vn 0.7673 0.0068 -0.6412
vn -0.7198 -0.0616 0.6914
vn -0.9164 0.3675 0.1584
vn 0.3944 0.7795 0.4866
vn -0.3822 -0.7987 -0.4648
vn -0.3957 -0.7875 -0.4725
vn -0.9151 0.3910 0.0989
vn 0.6284 -0.6003 0.4947
vn 0.4086 0.7899 0.4573
vn 0.4985 0.2608 0.8268
vn -0.2996 0.6960 0.6525
vn 0.0977 0.9822 -0.1602
vn 0.8639 0.2752 0.4218
vn 0.0036 0.4307 0.9025
vn -0.2943 0.9227 0.2491
vn 0.6092 0.7595 -0.2279
vn 0.3951 0.7795 0.4860
vn -0.8419 0.5168 -0.1556
vn 0.4417 0.7554 0.4841
vn -0.3145 -0.8082 -0.4979
vn 0.4478 0.2830 -0.8482
vn 0.8611 -0.1306 -0.4913
vn 0.4260 0.8009 0.4209
vn -0.4578 -0.7160 -0.5271
vn 0.2221 -0.5945 0.7728
vn 0.2399 0.4128 -0.8787
vn -0.4290 -0.7612 -0.4864
vn -0.4311 -0.7674 -0.4746
vn 0.3957 0.7876 0.4723
vn 0.3820 0.7989 0.4646
vn 0.9209 -0.3413 -0.1883
vn 0.5602 0.1999 -0.8038
vn -0.6403 -0.1318 0.7567
vn -0.0262 -0.5025 0.8642
vn -0.3742 -0.7984 -0.4717
vn 0.4293 0.7610 0.4864
vn 0.4314 0.7673 0.4745
vn -0.1504 -0.4562 0.8771
vn -0.5574 0.6077 -0.5657
vn -0.4077 -0.7812 -0.4728
vn -0.3974 -0.7828 -0.4789
vn 0.3741 0.7985 0.4716
vn -0.0668 0.5362 -0.8415
vn -0.6451 0.6069 -0.4642
vn 0.5787 -0.6156 0.5348
vn 0.9084 -0.4099 -0.0824
vn -0.3944 -0.7795 -0.4866
vn 0.4079 0.7812 0.4726
vn 0.3975 0.7828 0.4787
vn 0.8296 -0.5289 0.1791
vn -0.4933 -0.2571 0.8310
vn -0.8293 0.5289 -0.1803
vn 0.4198 0.3010 -0.8563
vn 0.8765 -0.1614 -0.4535
vn 0.2548 -0.6000 0.7584
vn -0.8733 0.1688 0.4570
vn -0.3962 0.6087 -0.6874
vn 0.7924 -0.5536 0.2563
vn -0.4304 -0.7987 -0.4205
vn 0.3951 0.8193 0.4155
vn 0.3931 0.3184 -0.8626
vn -0.8911 0.2112 0.4017
vn 0.4493 0.7840 0.4283
vn 0.3246 -0.6106 0.7223
vn -0.3742 -0.8227 -0.4279
vn 0.3545 0.7582 0.5473
vn -0.5381 -0.2277 0.8115
vn -0.4866 -0.7210 -0.4933
vn 0.8376 -0.5230 0.1580
vn -0.3575 0.6088 -0.7082
vn 0.4118 0.7340 0.5401
vn -0.8502 0.1238 0.5116
vn -0.4626 -0.7645 -0.4490
vn 0.3511 0.8123 0.4657
vn -0.7914 0.5567 -0.2527
vn -0.3600 -0.7522 -0.5519
vn -0.3687 -0.3368 0.8664
vn 0.8921 -0.1965 -0.4069
vn -0.3210 -0.8294 -0.4572
vn 0.3281 0.7895 0.5187
vn -0.3279 0.5950 -0.7338
vt 0.000000 0.000000
s 0
usemtl Material.002
f 2/1/1 1/1/1 8/1/1 7/1/1 6/1/1 5/1/1 4/1/1 3/1/1
f 46/1/3 47/1/3 80/1/3 77/1/3
f 28/1/4 25/1/4 58/1/4 59/1/4
f 48/1/5 45/1/5 78/1/5 79/1/5
f 39/1/6 40/1/6 71/1/6 72/1/6
f 25/1/7 26/1/7 57/1/7 58/1/7
f 45/1/8 46/1/8 77/1/8 78/1/8
f 38/1/9 39/1/9 72/1/9 69/1/9
f 40/1/10 37/1/10 70/1/10 71/1/10
f 7/1/19 8/1/19 26/1/19 25/1/19
f 8/1/19 16/1/19 27/1/19 26/1/19
f 16/1/19 15/1/19 28/1/19 27/1/19
f 15/1/19 7/1/19 25/1/19 28/1/19
f 5/1/19 6/1/19 30/1/19 29/1/19
f 6/1/19 14/1/19 31/1/19 30/1/19
f 14/1/19 13/1/19 32/1/19 31/1/19
f 13/1/19 5/1/19 29/1/19 32/1/19
f 3/1/19 4/1/19 34/1/19 33/1/19
f 4/1/19 12/1/19 35/1/19 34/1/19
f 12/1/19 11/1/19 36/1/19 35/1/19
f 11/1/19 3/1/19 33/1/19 36/1/19
f 1/1/19 2/1/19 38/1/19 37/1/19
f 2/1/19 10/1/19 39/1/19 38/1/19
f 10/1/19 9/1/19 40/1/19 39/1/19
f 9/1/19 1/1/19 37/1/19 40/1/19
f 8/1/19 1/1/19 42/1/19 41/1/19
f 1/1/19 9/1/19 43/1/19 42/1/19
f 9/1/19 16/1/19 44/1/19 43/1/19
f 16/1/19 8/1/19 41/1/19 44/1/19
f 6/1/19 7/1/19 46/1/19 45/1/19
f 7/1/19 15/1/19 47/1/19 46/1/19
f 15/1/19 14/1/19 48/1/19 47/1/19
f 14/1/19 6/1/19 45/1/19 48/1/19
f 4/1/19 5/1/19 50/1/19 49/1/19
f 5/1/19 13/1/19 51/1/19 50/1/19
f 13/1/19 12/1/19 52/1/19 51/1/19
f 12/1/19 4/1/19 49/1/19 52/1/19
f 2/1/19 3/1/19 54/1/19 53/1/19
f 3/1/19 11/1/19 55/1/19 54/1/19
f 11/1/19 10/1/19 56/1/19 55/1/19
f 10/1/19 2/1/19 53/1/19 56/1/19
f 85/1/20 88/1/20 120/1/20 117/1/20
f 60/1/21 59/1/21 91/1/21 92/1/21
f 74/1/22 73/1/22 105/1/22 106/1/22
f 87/1/23 86/1/23 118/1/23 119/1/23
f 57/1/24 60/1/24 92/1/24 89/1/24
f 72/1/25 71/1/25 103/1/25 104/1/25
f 86/1/26 85/1/26 117/1/26 118/1/26
f 59/1/27 58/1/27 90/1/27 91/1/27
f 26/1/28 27/1/28 60/1/28 57/1/28
f 53/1/29 54/1/29 85/1/29 86/1/29
f 33/1/30 34/1/30 65/1/30 66/1/30
f 47/1/31 48/1/31 79/1/31 80/1/31
f 27/1/32 28/1/32 59/1/32 60/1/32
f 56/1/33 53/1/33 86/1/33 87/1/33
f 36/1/34 33/1/34 66/1/34 67/1/34
f 54/1/35 55/1/35 88/1/35 85/1/35
f 34/1/36 35/1/36 68/1/36 65/1/36
f 41/1/37 42/1/37 73/1/37 74/1/37
f 55/1/38 56/1/38 87/1/38 88/1/38
f 35/1/39 36/1/39 67/1/39 68/1/39
f 44/1/40 41/1/40 74/1/40 75/1/40
f 42/1/41 43/1/41 76/1/41 73/1/41
f 49/1/42 50/1/42 81/1/42 82/1/42
f 29/1/43 30/1/43 61/1/43 62/1/43
f 43/1/44 44/1/44 75/1/44 76/1/44
f 52/1/45 49/1/45 82/1/45 83/1/45
f 32/1/46 29/1/46 62/1/46 63/1/46
f 50/1/47 51/1/47 84/1/47 81/1/47
f 30/1/48 31/1/48 64/1/48 61/1/48
f 37/1/49 38/1/49 69/1/49 70/1/49
f 51/1/50 52/1/50 83/1/50 84/1/50
f 31/1/51 32/1/51 63/1/51 64/1/51
f 90/1/52 89/1/52 92/1/52 91/1/52
f 94/1/53 93/1/53 96/1/53 95/1/53
f 98/1/54 97/1/54 100/1/54 99/1/54
f 102/1/55 101/1/55 104/1/55 103/1/55
f 106/1/56 105/1/56 108/1/56 107/1/56
f 110/1/57 109/1/57 112/1/57 111/1/57
f 114/1/58 113/1/58 116/1/58 115/1/58
f 118/1/59 117/1/59 120/1/59 119/1/59
f 75/1/60 74/1/60 106/1/60 107/1/60
f 62/1/61 61/1/61 93/1/61 94/1/61
f 88/1/62 87/1/62 119/1/62 120/1/62
f 73/1/63 76/1/63 108/1/63 105/1/63
f 63/1/64 62/1/64 94/1/64 95/1/64
f 76/1/65 75/1/65 107/1/65 108/1/65
f 61/1/66 64/1/66 96/1/66 93/1/66
f 78/1/67 77/1/67 109/1/67 110/1/67
f 64/1/68 63/1/68 95/1/68 96/1/68
f 79/1/69 78/1/69 110/1/69 111/1/69
f 66/1/70 65/1/70 97/1/70 98/1/70
f 77/1/71 80/1/71 112/1/71 109/1/71
f 67/1/72 66/1/72 98/1/72 99/1/72
f 80/1/73 79/1/73 111/1/73 112/1/73
f 65/1/74 68/1/74 100/1/74 97/1/74
f 82/1/75 81/1/75 113/1/75 114/1/75
f 68/1/76 67/1/76 99/1/76 100/1/76
f 83/1/77 82/1/77 114/1/77 115/1/77
f 70/1/78 69/1/78 101/1/78 102/1/78
f 81/1/79 84/1/79 116/1/79 113/1/79
f 71/1/80 70/1/80 102/1/80 103/1/80
f 58/1/81 57/1/81 89/1/81 90/1/81
f 84/1/82 83/1/82 115/1/82 116/1/82
f 69/1/83 72/1/83 104/1/83 101/1/83
usemtl Material.003
f 16/1/2 9/1/2 17/1/2 24/1/2
f 18/1/11 19/1/11 20/1/11 21/1/11 22/1/11 23/1/11 24/1/11 17/1/11
f 14/1/12 15/1/12 23/1/12 22/1/12
f 12/1/13 13/1/13 21/1/13 20/1/13
f 10/1/14 11/1/14 19/1/14 18/1/14
f 15/1/15 16/1/15 24/1/15 23/1/15
f 13/1/16 14/1/16 22/1/16 21/1/16
f 11/1/17 12/1/17 20/1/17 19/1/17
f 9/1/18 10/1/18 18/1/18 17/1/18
